<svg xmlns="http://www.w3.org/2000/svg" width="40" height="48" viewBox="0 0 40 48">
    <g fill="none" fill-rule="nonzero">
        <path fill="#054280" d="M0 26.419s4.57 5.937 10.083 5.71C22.39 30.598 26.73 8.698 26.73 8.698l5.62-3.725a79.105 79.105 0 0 1-3.046 20.96C23.73 44.941 15.154 48 15.154 48A41.83 41.83 0 0 1 0 26.419z"/>
        <path fill="#0DA655" d="M33.672 21.159c2.271-7.406 3.407-19.915 3.407-19.915L32.96 4.182s.485 5.8-1.877 17.234a59.526 59.526 0 0 1-5.118 14.388 45.313 45.313 0 0 1-6.057 8.465c4.013-3.861 9.872-10.328 13.764-23.11z"/>
        <path fill="#054280" d="M29.981 32.761a73.874 73.874 0 0 0 6.781-16.523A118.874 118.874 0 0 0 39.318 0l-1.224.781a142.181 142.181 0 0 1-2.28 15.021 60.889 60.889 0 0 1-6.598 17.004 93.933 93.933 0 0 1-6.322 8.728 51.54 51.54 0 0 0 7.087-8.773z"/>
    </g>
</svg>
