<svg xmlns="http://www.w3.org/2000/svg" width="101" height="14" viewBox="0 0 101 14">
    <g fill="none" fill-rule="nonzero">
        <path fill="#054280" d="M47.418 7.107v6.74h3.17l.02-3.615.031-3.605 1.984 3.605 1.994 3.615h3.231V.368h-3.272l-.02 3.594-.031 3.605-1.974-3.605L50.568.368h-3.15v6.74zm-46.424 0v6.74h3.15c4.274 0 5.062-.147 5.89-1.045.266-.293.572-.742.685-1.003.409-.993.43-2.508.04-3.459-.224-.543-.827-1.16-1.42-1.442l-.491-.24.306-.167c.45-.24 1.013-.961 1.207-1.557.204-.616.225-1.713.061-2.33-.276-.972-1.145-1.87-2.065-2.131C8.152.41 6.475.368 4.502.368H.994v6.74zm5.43-3.918c.205.063.45.199.542.303.235.272.317.94.164 1.41-.174.555-.512.69-1.739.69H4.37V3.085h.849c.46 0 1.002.052 1.206.104zm.246 5.12c.593.136.971.606.971 1.202 0 1.097-.348 1.337-2.014 1.39l-1.258.041V8.204h.95c.512 0 1.126.053 1.35.105zm8.538-6.927c-.164.564-1.084 3.583-2.035 6.718l-1.728 5.694 1.697.032c1.064.01 1.718-.01 1.76-.084.03-.052.163-.554.296-1.097l.235-.992 1.902.02 1.902.032.255 1.065.256 1.077h1.78c1.492 0 1.768-.021 1.738-.147-.02-.083-.93-3.113-2.025-6.739L19.247.368h-3.722l-.317 1.014zm2.74 5.004c.297 1.15.532 2.153.532 2.216 0 .094-.337.125-1.125.125-.94 0-1.125-.031-1.125-.157 0-.345 1.054-4.45 1.125-4.367.041.042.307 1.024.593 2.183zm6.463.732v6.74l3.098-.032c2.874-.042 3.14-.052 3.784-.272 1.493-.512 2.638-2.12 2.996-4.2.214-1.264.153-3.981-.113-5.015-.409-1.589-1.298-2.926-2.31-3.448-.89-.47-1.3-.523-4.46-.523h-2.995v6.75zm4.929-3.605c.715.157 1.227.669 1.452 1.452.388 1.338.296 3.981-.164 4.838-.399.721-.665.857-1.83.888l-1.013.042V3.398h.512c.276 0 .746.052 1.043.115zm9.13-3.02c-.02.074-.94 3.093-2.034 6.719l-1.984 6.582 1.698.032c1.063.01 1.718-.01 1.759-.084.03-.052.163-.554.296-1.097l.235-.992 1.902.02 1.902.032.256 1.065.255 1.077h1.77c.97 0 1.768-.021 1.768-.053 0-.03-.9-3.009-1.994-6.624C43.205 3.565 42.306.556 42.306.483c0-.178-3.774-.167-3.835.01zm2.465 5.852c.297 1.222.552 2.257.552 2.298 0 .053-.5.084-1.124.084-.829 0-1.125-.031-1.125-.136-.01-.198 1.063-4.566 1.104-4.514.02.021.287 1.035.593 2.268z"/>
        <path fill="#0DA655" d="M88.32 7.003v6.635h2.864l.02-4.88.03-4.88.962 4.441a815.836 815.836 0 0 1 1.053 4.88l.102.439H95.96l1.084-4.942 1.073-4.932.01 4.932.01 4.942H101V.368H96.419l-.102.439c-.665 3.145-1.616 7.397-1.657 7.397-.03 0-.368-1.441-.746-3.218-.389-1.765-.767-3.52-.86-3.918l-.153-.7h-4.58v6.635zM79.17.285c-.89.167-1.984.783-2.66 1.483-1.318 1.38-1.88 3.49-1.676 6.248.143 1.923.757 3.375 1.871 4.451 1.043 1.014 2.393 1.432 4.305 1.348 1.411-.062 2.26-.324 3.109-.96 1.656-1.255 2.464-3.48 2.32-6.427-.06-1.431-.265-2.298-.756-3.322C84.997 1.653 83.74.66 82.134.316c-.798-.167-2.178-.188-2.965-.031zm2.392 3.218c.46.23.88.71 1.084 1.222.256.627.368 1.975.256 3.145-.154 1.703-.603 2.497-1.575 2.79-.276.083-.603.157-.716.157-.736 0-1.544-.544-1.902-1.254-.306-.617-.44-1.682-.378-3.02.051-1.306.215-1.912.654-2.497.532-.71 1.76-.972 2.577-.543zM63.78 6.993v6.645H67.358V8.727h1.207c.664 0 1.482-.052 1.81-.115 2.055-.387 3.139-2.058 2.985-4.587-.071-1.233-.378-1.996-1.032-2.664-.9-.91-1.002-.93-5.042-.972L63.78.358v6.634zm5.4-3.752c.97.397 1.063 1.923.163 2.529-.174.115-.552.188-1.125.22l-.859.052V3.085h.716c.399 0 .88.073 1.104.156z"/>
    </g>
</svg>
